#!OML:ASF G:\JayActor3\Patient Classification 1\Patient 1\Session 6\male.ASF
:FULLY-SPECIFIED
:DEGREES
1501
root -20.2366 16.6554 9.36313 357.439 -51.3153 -366.526
lowerback 8.63232 -2.75738 5.8123
upperback -2.56903 -2.74681 4.68005
thorax -7.62774 -1.51879 2.11407
lowerneck 7.1874 -14.2906 -4.63637
upperneck 1.40416 -19.441 1.70662
head -0.0936843 -9.78261 1.57084
rclavicle -4.1546e-014 1.74931e-014
rhumerus -26.3459 12.8894 -77.1593
rradius 31.5571
rwrist 8.42547
rhand -11.6101 -1.01779
rfingers 7.12502
rthumb 14.4327 -30.4959
lclavicle -4.1546e-014 1.74931e-014
lhumerus -59.704 8.57239 77.5048
lradius 39.0169
lwrist 27.0225
lhand -7.21233 5.64653
lfingers 7.12502
lthumb 18.6666 34.7709
rfemur 6.24822 4.92663 31.9467
rtibia 23.1024
rfoot -22.2292 -21.7135
rtoes 0.639209
lfemur -20.7 12.2377 -8.27412
ltibia 59.5207
lfoot -10.0426 8.38401
ltoes -11.1945
1502
root -20.3077 16.648 9.4037 357.721 -51.8271 -366.81
lowerback 8.56105 -2.69298 6.01369
upperback -2.55516 -2.6467 4.67606
thorax -7.58123 -1.47944 1.97783
lowerneck 7.18234 -14.3061 -4.64134
upperneck 1.41007 -19.4621 1.71542
head -0.0888674 -9.79346 1.5732
rclavicle 1.59028e-015 -4.77083e-014
rhumerus -26.1243 13.3051 -77.5304
rradius 31.7356
rwrist 8.34231
rhand -11.5954 -1.02801
rfingers 7.12502
rthumb 14.4469 -30.5051
lclavicle 1.59028e-015 -4.77083e-014
lhumerus -59.9488 8.7708 77.3879
lradius 38.7817
lwrist 26.8809
lhand -6.96806 5.55288
lfingers 7.12502
lthumb 18.9015 34.6545
rfemur 6.75396 5.13217 32.1898
rtibia 22.6771
rfoot -22.1398 -21.5372
rtoes 0.478282
lfemur -21.4228 12.185 -8.50928
ltibia 58.8067
lfoot -10.3181 8.39266
ltoes -11.6771
1503
root -20.3792 16.6413 9.4447 358.025 -52.3485 -367.1
lowerback 8.47431 -2.62902 6.21073
upperback -2.54315 -2.54962 4.66981
thorax -7.52705 -1.44126 1.84154
lowerneck 7.18384 -14.3187 -4.6429
upperneck 1.41785 -19.4794 1.71911
head -0.0854971 -9.80239 1.57413
rclavicle 2.5842e-014 -2.22639e-014
rhumerus -25.9361 13.7549 -77.916
rradius 31.949
rwrist 8.23307
rhand -11.5995 -1.03544
rfingers 7.12502
rthumb 14.4429 -30.5129
lclavicle 2.5842e-014 -2.22639e-014
lhumerus -60.1832 8.98683 77.2572
lradius 38.5288
lwrist 26.7295
lhand -6.74921 5.45726
lfingers 7.12502
lthumb 19.112 34.5382
rfemur 7.25896 5.33188 32.4215
rtibia 22.2249
rfoot -22.0301 -21.3538
rtoes 0.290458
lfemur -22.1137 12.1099 -8.73335
ltibia 58.0279
lfoot -10.5885 8.35015
ltoes -12.044
1504
root -20.4511 16.6351 9.48597 358.353 -52.8763 -367.401
lowerback 8.37619 -2.56786 6.40455
upperback -2.53045 -2.45839 4.66261
thorax -7.46489 -1.40558 1.70655
lowerneck 7.16165 -14.3266 -4.63763
upperneck 1.44761 -19.4892 1.70646
head -0.0739675 -9.80758 1.56618
rclavicle -2.28602e-014 1.90833e-014
rhumerus -25.7781 14.24 -78.3156
rradius 32.193
rwrist 8.09803
rhand -11.6064 -1.04474
rfingers 7.12502
rthumb 14.4363 -30.5226
lclavicle -2.28602e-014 1.90833e-014
lhumerus -60.4086 9.21378 77.1208
lradius 38.2673
lwrist 26.5865
lhand -6.58038 5.37508
lfingers 7.12502
lthumb 19.2744 34.4399
rfemur 7.76707 5.53117 32.6485
rtibia 21.7487
rfoot -21.915 -21.1648
rtoes 0.0828182
lfemur -22.7692 12.0055 -8.93853
ltibia 57.1861
lfoot -10.8616 8.24697
ltoes -12.2506
1505
root -20.5233 16.6289 9.52731 358.694 -53.4099 -367.709
lowerback 8.27585 -2.50869 6.59154
upperback -2.51521 -2.37158 4.65347
thorax -7.39797 -1.37153 1.57404
lowerneck 7.11925 -14.3286 -4.62724
upperneck 1.49711 -19.49 1.68086
head -0.0550996 -9.80828 1.551
rclavicle -7.77248e-014 -2.38542e-014
rhumerus -25.6428 14.7468 -78.7224
rradius 32.4552
rwrist 7.94869
rhand -11.5244 -1.10267
rfingers 7.12502
rthumb 14.5153 -30.5749
lclavicle -7.77248e-014 -2.38542e-014
lhumerus -60.6248 9.44829 76.98
lradius 37.9999
lwrist 26.4611
lhand -6.47975 5.32373
lfingers 7.12502
lthumb 19.3711 34.3789
rfemur 8.28307 5.72723 32.8681
rtibia 21.2511
rfoot -21.7906 -20.9675
rtoes -0.134304
lfemur -23.3803 11.8639 -9.12295
ltibia 56.2835
lfoot -11.1605 8.05815
ltoes -12.1828
1506
root -20.596 16.6228 9.56863 359.051 -53.9503 -368.031
lowerback 8.17297 -2.45145 6.77504
upperback -2.49184 -2.28915 4.6434
thorax -7.32027 -1.33905 1.44292
lowerneck 7.04927 -14.3287 -4.6162
upperneck 1.56706 -19.4874 1.64657
head -0.0264352 -9.80732 1.52971
rclavicle -1.13307e-014 1.59028e-014
rhumerus -25.5245 15.2672 -79.1342
rradius 32.7355
rwrist 7.7896
rhand -11.3217 -1.24475
rfingers 7.12502
rthumb 14.7106 -30.7028
lclavicle -1.13307e-014 1.59028e-014
lhumerus -60.8208 9.69595 76.8303
lradius 37.7192
lwrist 26.3516
lhand -6.4359 5.30055
lfingers 7.12502
lthumb 19.4133 34.3515
rfemur 8.80939 5.93748 33.092
rtibia 20.7383
rfoot -21.6674 -20.7754
rtoes -0.32975
lfemur -23.9404 11.6836 -9.279
ltibia 55.3193
lfoot -11.4742 7.79609
ltoes -11.9781
1507
root -20.6691 16.6164 9.60989 359.407 -54.4925 -368.357
lowerback 8.07639 -2.39815 6.94934
upperback -2.46229 -2.2135 4.62757
thorax -7.23905 -1.30918 1.31215
lowerneck 6.97378 -14.3244 -4.60289
upperneck 1.63962 -19.4783 1.61505
head 0.00376026 -9.8032 1.50835
rclavicle 4.6118e-014 6.04305e-014
rhumerus -25.4254 15.7892 -79.5535
rradius 33.0234
rwrist 7.64221
rhand -11.0024 -1.45583
rfingers 7.12502
rthumb 15.0182 -30.8912
lclavicle 4.6118e-014 6.04305e-014
lhumerus -61.0011 9.94732 76.671
lradius 37.4287
lwrist 26.261
lhand -6.45397 5.31855
lfingers 7.12502
lthumb 19.3959 34.3712
rfemur 9.34819 6.15635 33.3129
rtibia 20.2191
rfoot -21.5286 -20.603
rtoes -0.592206
lfemur -24.4425 11.4572 -9.41327
ltibia 54.2918
lfoot -11.7953 7.45978
ltoes -11.6764
1508
root -20.7429 16.6095 9.65117 359.757 -55.0421 -368.679
lowerback 7.98265 -2.34681 7.10809
upperback -2.42479 -2.14309 4.60588
thorax -7.15017 -1.2808 1.1846
lowerneck 6.9078 -14.317 -4.59392
upperneck 1.6964 -19.4657 1.59912
head 0.0293245 -9.79723 1.49377
rclavicle 9.54166e-015 1.59028e-015
rhumerus -25.3441 16.3187 -79.9812
rradius 33.3199
rwrist 7.46807
rhand -10.611 -1.71061
rfingers 7.12502
rthumb 15.3952 -31.1174
lclavicle 9.54166e-015 1.59028e-015
lhumerus -61.1653 10.1979 76.5064
lradius 37.1328
lwrist 26.1976
lhand -6.48614 5.34164
lfingers 7.12502
lthumb 19.365 34.3974
rfemur 9.89449 6.39479 33.5288
rtibia 19.7047
rfoot -21.387 -20.4467
rtoes -0.860494
lfemur -24.89 11.213 -9.53984
ltibia 53.1949
lfoot -12.0625 7.11998
ltoes -11.7429
1509
root -20.8172 16.602 9.69222 360.095 -55.5944 -368.989
lowerback 7.89244 -2.29731 7.24624
upperback -2.38212 -2.07797 4.57633
thorax -7.05693 -1.2538 1.06109
lowerneck 6.8676 -14.3087 -4.5932
upperneck 1.72604 -19.4531 1.60741
head 0.0454739 -9.79131 1.49096
rclavicle 5.32743e-014 -1.27222e-014
rhumerus -25.2868 16.8305 -80.414
rradius 33.6269
rwrist 7.29824
rhand -10.2196 -1.96048
rfingers 7.12502
rthumb 15.7722 -31.3379
lclavicle 5.32743e-014 -1.27222e-014
lhumerus -61.3127 10.4449 76.3328
lradius 36.8275
lwrist 26.148
lhand -6.51403 5.36539
lfingers 7.12502
lthumb 19.3382 34.4238
rfemur 10.4432 6.65524 33.7394
rtibia 19.2057
rfoot -21.2429 -20.3157
rtoes -1.16156
lfemur -25.2844 10.9512 -9.66258
ltibia 52.0266
lfoot -12.2758 6.78868
ltoes -12.2527
1510
root -20.8924 16.5938 9.73308 360.415 -56.1496 -369.278
lowerback 7.79793 -2.25037 7.35219
upperback -2.33151 -2.0212 4.54081
thorax -6.95153 -1.22897 0.949944
lowerneck 6.83682 -14.2966 -4.59148
upperneck 1.72913 -19.4354 1.62966
head 0.0529051 -9.78252 1.49431
rclavicle 3.4191e-014 2.70347e-014
rhumerus -25.2439 17.3321 -80.8489
rradius 33.9438
rwrist 7.12461
rhand -9.89983 -2.16072
rfingers 7.12502
rthumb 16.0801 -31.5135
lclavicle 3.4191e-014 2.70347e-014
lhumerus -61.44 10.7065 76.141
lradius 36.5158
lwrist 26.0852
lhand -6.53357 5.3977
lfingers 7.12502
lthumb 19.3194 34.458
rfemur 10.9865 6.93092 33.9362
rtibia 18.7297
rfoot -21.1049 -20.1965
rtoes -1.48231
lfemur -25.6316 10.6831 -9.79003
ltibia 50.7863
lfoot -12.4299 6.47782
ltoes -13.2574
1511
root -20.9683 16.5851 9.77388 360.715 -56.7094 -369.534
lowerback 7.69825 -2.20358 7.42405
upperback -2.27661 -1.96942 4.49818
thorax -6.83736 -1.20477 0.850636
lowerneck 6.813 -14.2844 -4.58634
upperneck 1.71076 -19.4172 1.65415
head 0.0523382 -9.77312 1.49963
rclavicle 6.52014e-014 2.54444e-014
rhumerus -25.2219 17.8228 -81.2839
rradius 34.2685
rwrist 6.92748
rhand -9.70746 -2.27403
rfingers 7.12502
rthumb 16.2653 -31.6118
lclavicle 6.52014e-014 2.54444e-014
lhumerus -61.5517 10.9631 75.9518
lradius 36.2079
lwrist 26.0251
lhand -6.54779 5.44176
lfingers 7.12502
lthumb 19.3057 34.5035
rfemur 11.519 7.21673 34.1091
rtibia 18.2764
rfoot -20.9755 -20.0757
rtoes -1.78242
lfemur -25.9268 10.388 -9.91728
ltibia 49.4812
lfoot -12.5927 6.10858
ltoes -14.2321
1512
root -21.0448 16.5762 9.81476 361.009 -57.2766 -369.773
lowerback 7.58419 -2.1545 7.47052
upperback -2.21636 -1.91941 4.45157
thorax -6.70822 -1.17985 0.76078
lowerneck 6.78059 -14.2703 -4.59261
upperneck 1.68972 -19.3967 1.68816
head 0.0542918 -9.76264 1.50859
rclavicle -2.38542e-014 6.36111e-015
rhumerus -25.2142 18.2877 -81.71
rradius 34.5982
rwrist 6.75499
rhand -9.61867 -2.30795
rfingers 7.12502
rthumb 16.3508 -31.6387
lclavicle -2.38542e-014 6.36111e-015
lhumerus -61.6448 11.2139 75.7691
lradius 35.9072
lwrist 25.9636
lhand -6.54833 5.48846
lfingers 7.12502
lthumb 19.3052 34.5502
rfemur 12.0382 7.51627 34.2662
rtibia 17.8424
rfoot -20.8807 -19.9365
rtoes -1.98462
lfemur -26.1758 10.086 -10.0285
ltibia 48.1206
lfoot -12.7842 5.61928
ltoes -14.9283
1513
root -21.1218 16.5673 9.85611 361.303 -57.8579 -369.996
lowerback 7.46171 -2.10361 7.4976
upperback -2.15782 -1.8699 4.40017
thorax -6.57543 -1.1542 0.676703
lowerneck 6.74773 -14.2493 -4.60993
upperneck 1.67144 -19.3678 1.72598
head 0.058322 -9.7481 1.51994
rclavicle -1.78906e-015 -3.49861e-014
rhumerus -25.2328 18.7323 -82.1346
rradius 34.929
rwrist 6.59355
rhand -9.59283 -2.29264
rfingers 7.12502
rthumb 16.3757 -31.6213
lclavicle -1.78906e-015 -3.49861e-014
lhumerus -61.7385 11.4452 75.6038
lradius 35.6329
lwrist 25.9247
lhand -6.54547 5.5497
lfingers 7.12502
lthumb 19.3079 34.6112
rfemur 12.5444 7.81096 34.3954
rtibia 17.4184
rfoot -20.8055 -19.7589
rtoes -2.13181
lfemur -26.3767 9.75277 -10.1172
ltibia 46.7177
lfoot -13.0426 4.97914
ltoes -15.0366
1514
root -21.1996 16.5584 9.89817 361.618 -58.4597 -370.226
lowerback 7.32713 -2.04944 7.52099
upperback -2.10143 -1.81766 4.34647
thorax -6.43779 -1.12689 0.59184
lowerneck 6.70629 -14.2212 -4.63558
upperneck 1.66732 -19.3299 1.76198
head 0.0684638 -9.72926 1.53042
rclavicle -1.92821e-014 -1.74931e-014
rhumerus -25.277 19.1481 -82.5565
rradius 35.2632
rwrist 6.46813
rhand -9.5525 -2.28024
rfingers 7.12502
rthumb 16.4145 -31.6057
lclavicle -1.92821e-014 -1.74931e-014
lhumerus -61.8322 11.6715 75.4366
lradius 35.3716
lwrist 25.8689
lhand -6.51018 5.61417
lfingers 7.12502
lthumb 19.3419 34.6723
rfemur 13.0376 8.1094 34.5111
rtibia 17.0015
rfoot -20.753 -19.5448
rtoes -2.19345
lfemur -26.5344 9.39654 -10.172
ltibia 45.2817
lfoot -13.347 4.21589
ltoes -14.6787
